<svg width="1643" height="516" viewBox="0 0 1643 516" fill="none" xmlns="http://www.w3.org/2000/svg">
<path d="M630.803 104.184C653.603 104.184 672.953 106.884 688.853 112.284C705.053 117.684 717.953 126.534 727.553 138.834C737.153 151.134 744.053 167.634 748.253 188.334C752.753 209.034 755.003 234.684 755.003 265.284C755.003 295.584 752.753 321.234 748.253 342.234C744.053 362.934 737.153 379.434 727.553 391.734C717.953 404.034 705.053 412.884 688.853 418.284C672.953 423.684 653.603 426.384 630.803 426.384C608.003 426.384 588.503 423.684 572.303 418.284C556.403 412.884 543.503 404.034 533.603 391.734C524.003 379.434 516.953 362.934 512.453 342.234C507.953 321.234 505.703 295.584 505.703 265.284C505.703 234.684 507.953 209.034 512.453 188.334C516.953 167.634 524.003 151.134 533.603 138.834C543.503 126.534 556.403 117.684 572.303 112.284C588.503 106.884 608.003 104.184 630.803 104.184ZM630.803 143.334C611.303 143.334 595.853 147.084 584.453 154.584C573.053 162.084 564.953 174.684 560.153 192.384C555.653 209.784 553.403 234.084 553.403 265.284C553.403 296.184 555.653 320.484 560.153 338.184C564.953 355.884 573.053 368.484 584.453 375.984C595.853 383.484 611.303 387.234 630.803 387.234C650.303 387.234 665.603 383.484 676.703 375.984C688.103 368.484 696.203 355.884 701.003 338.184C705.803 320.484 708.203 296.184 708.203 265.284C708.203 234.084 705.803 209.784 701.003 192.384C696.203 174.684 688.103 162.084 676.703 154.584C665.603 147.084 650.303 143.334 630.803 143.334ZM1062.75 110.034V402.984C1062.75 414.684 1057.2 420.534 1046.1 420.534H1007.4C1002.3 420.534 998.246 419.334 995.246 416.934C992.546 414.534 990.146 411.084 988.046 406.584L886.346 196.884C883.646 190.884 880.496 184.134 876.896 176.634C873.296 168.834 870.596 161.634 868.796 155.034H862.046C862.646 161.934 863.096 168.984 863.396 176.184C863.696 183.084 863.846 190.134 863.846 197.334V420.534H819.746V127.584C819.746 115.884 825.446 110.034 836.846 110.034H874.196C879.296 110.034 883.346 111.234 886.346 113.634C889.346 116.034 891.896 119.484 893.996 123.984L992.096 328.284C995.396 334.584 998.846 341.784 1002.45 349.884C1006.35 357.984 1010.1 365.934 1013.7 373.734H1020.9C1020.3 365.634 1019.85 357.684 1019.55 349.884C1019.25 341.784 1019.1 333.834 1019.1 326.034V110.034H1062.75ZM1355.7 110.034L1250.85 316.584H1209.9L1104.6 110.034H1152.3L1215.3 237.834C1218 243.534 1220.4 249.534 1222.5 255.834C1224.6 261.834 1226.7 267.834 1228.8 273.834H1231.95C1234.05 267.834 1236.15 261.834 1238.25 255.834C1240.65 249.534 1243.05 243.684 1245.45 238.284L1308.45 110.034H1355.7ZM1252.65 285.984V420.534H1207.65V285.984H1252.65ZM1622.17 110.034L1541.17 259.884L1628.02 420.534H1579.87L1496.17 259.884L1574.47 110.034H1622.17ZM1423.72 110.034L1502.02 259.884L1418.32 420.534H1370.17L1456.57 259.884L1376.02 110.034H1423.72ZM1524.52 243.234V276.084H1472.77V243.234H1524.52Z" fill="white"/>
<path d="M403 382.14L255 508.018V424.447L320.75 368.525L212.501 151.379L104.25 368.526L171 425.297V508.867L22 382.14L212.501 0L403 382.14Z" fill="white"/>
</svg>
